<?xml version="1.0" encoding="UTF-8" standalone="no"?>
<svg
   xmlns:dc="http://purl.org/dc/elements/1.1/"
   xmlns:cc="http://creativecommons.org/ns#"
   xmlns:rdf="http://www.w3.org/1999/02/22-rdf-syntax-ns#"
   xmlns:svg="http://www.w3.org/2000/svg"
   xmlns="http://www.w3.org/2000/svg"
   viewBox="0 0 1065.9467 513.25336"
   height="513.25336"
   width="1065.9467"
   xml:space="preserve"
   id="svg2"
   version="1.1"><metadata
     id="metadata8"><rdf:RDF><cc:Work
         rdf:about=""><dc:format>image/svg+xml</dc:format><dc:type
           rdf:resource="http://purl.org/dc/dcmitype/StillImage" /></cc:Work></rdf:RDF></metadata><defs
     id="defs6" /><g
     transform="matrix(1.3333333,0,0,-1.3333333,0,513.25333)"
     id="g10"><g
       transform="scale(0.1)"
       id="g12"><path
         id="path14"
         style="fill:#231f20;fill-opacity:1;fill-rule:nonzero;stroke:none"
         d="M 0,0 H 7994.62 V 2429.88 H 0 Z" /><path
         id="path16"
         style="fill:none;stroke:#ed1c24;stroke-width:30;stroke-linecap:butt;stroke-linejoin:miter;stroke-miterlimit:4;stroke-dasharray:none;stroke-opacity:1"
         d="m 4070.66,3731.52 h -102.93 v 102.93 H 3843.61 V 3731.52 H 3740.68 V 3607.4 h 102.93 v -102.93 h 124.12 v 102.93 h 102.93 z" /><path
         id="path18"
         style="fill:none;stroke:#ed1c24;stroke-width:30;stroke-linecap:butt;stroke-linejoin:miter;stroke-miterlimit:4;stroke-dasharray:none;stroke-opacity:1"
         d="m 4070.66,1706.63 h -102.93 v 102.93 h -124.12 v -102.93 h -102.93 v -124.12 h 102.93 v -102.93 h 124.12 v 102.93 h 102.93 z" /><path
         id="path20"
         style="fill:#231f20;fill-opacity:1;fill-rule:nonzero;stroke:none"
         d="m 1238.57,3415.07 v -495.02 c 0,-56.13 -1.83,-95.55 -5.48,-118.27 -3.66,-22.73 -14.48,-46.05 -32.45,-70 -17.96,-23.94 -41.66,-42.11 -71.05,-54.45 -29.39,-12.32 -64.04,-18.51 -103.93,-18.51 -44.18,0 -83.164,7.32 -116.972,21.95 -33.829,14.65 -59.102,33.71 -75.86,57.19 -16.758,23.47 -26.64,48.26 -29.687,74.35 -3.047,26.08 -4.571,80.9 -4.571,164.48 v 438.28 h 192.5 v -555.72 c 0,-32.35 1.739,-53.03 5.215,-62.04 3.477,-9 10.535,-13.49 21.155,-13.49 12.11,0 19.92,4.94 23.4,14.86 3.48,9.92 5.23,33.34 5.23,70.28 v 546.11 h 192.5" /><path
         id="path22"
         style="fill:#231f20;fill-opacity:1;fill-rule:nonzero;stroke:none"
         d="m 1743.96,3415.07 v -741.25 h -168.75 l -100,336.97 v -336.97 h -161.25 v 741.25 h 161.25 l 107.5,-333.77 v 333.77 h 161.25" /><path
         id="path24"
         style="fill:#231f20;fill-opacity:1;fill-rule:nonzero;stroke:none"
         d="m 2014.31,3288.82 v -488.75 c 27.93,0 45.14,5.56 51.58,16.73 6.45,11.18 9.67,41.55 9.67,91.12 v 288.65 c 0,33.66 -1.07,55.22 -3.22,64.71 -2.15,9.49 -7.07,16.45 -14.75,20.88 -7.67,4.43 -22.11,6.66 -43.28,6.66 z m -192.5,126.25 h 144.18 c 93.05,0 155.98,-4.28 188.79,-12.83 32.79,-8.56 57.73,-22.58 74.82,-42.11 17.09,-19.53 27.78,-41.29 32.06,-65.25 4.25,-23.97 6.4,-71.04 6.4,-141.24 v -259.6 c 0,-66.55 -3.14,-111.05 -9.39,-133.47 -6.25,-22.44 -17.17,-40 -32.72,-52.65 -15.56,-12.66 -34.78,-21.51 -57.67,-26.55 -22.89,-5.04 -57.37,-7.55 -103.44,-7.55 h -243.03 v 741.25" /><path
         id="path26"
         style="fill:#231f20;fill-opacity:1;fill-rule:nonzero;stroke:none"
         d="m 2340.19,3415.07 h 322.5 v -148.75 h -130 v -140 h 121.25 v -141.25 h -121.25 v -162.5 h 142.5 v -148.75 h -335 v 741.25" /><path
         id="path28"
         style="fill:#231f20;fill-opacity:1;fill-rule:nonzero;stroke:none"
         d="m 2922.39,3288.82 v -165 c 21.72,0 36.96,2.97 45.67,8.93 8.71,5.95 13.08,25.29 13.08,57.98 v 40.81 c 0,23.51 -4.22,38.94 -12.61,46.28 -8.42,7.33 -23.79,11 -46.14,11 z m -192.5,126.25 h 136.33 c 90.86,0 152.38,-3.52 184.57,-10.51 32.17,-7.01 58.4,-24.92 78.67,-53.71 20.28,-28.79 30.43,-74.72 30.43,-137.81 0,-57.6 -7.18,-96.29 -21.52,-116.09 -14.34,-19.81 -42.56,-31.7 -84.67,-35.65 38.13,-9.49 63.77,-22.17 76.9,-38.07 13.12,-15.89 21.28,-30.5 24.49,-43.78 3.2,-13.31 4.8,-49.91 4.8,-109.83 v -195.8 h -178.75 v 246.89 c 0,39.77 -3.14,64.38 -9.41,73.87 -6.27,9.49 -22.72,14.24 -49.34,14.24 v -335 h -192.5 v 741.25" /><path
         id="path30"
         style="fill:#231f20;fill-opacity:1;fill-rule:nonzero;stroke:none"
         d="m 3789.06,3415.07 v -148.75 h -116.25 v -592.5 h -192.5 v 592.5 h -113.75 v 148.75 h 422.5" /><path
         id="path32"
         style="fill:#231f20;fill-opacity:1;fill-rule:nonzero;stroke:none"
         d="m 4275.09,3415.07 v -741.25 h -192.5 v 311.25 h -57.49 v -311.25 h -192.5 v 741.25 h 192.5 v -265 h 57.49 v 265 h 192.5" /><path
         id="path34"
         style="fill:#231f20;fill-opacity:1;fill-rule:nonzero;stroke:none"
         d="m 4353.27,3415.07 h 322.5 v -148.75 h -130 v -140 h 121.25 v -141.25 h -121.25 v -162.5 h 142.5 v -148.75 h -335 v 741.25" /><path
         id="path36"
         style="fill:#231f20;fill-opacity:1;fill-rule:nonzero;stroke:none"
         d="m 5367.66,3415.07 -110.62,-334.69 120.62,-406.56 h -198.75 l -78.12,317.73 v -317.73 h -192.5 v 741.25 h 192.5 v -287.99 l 86.87,287.99 h 180" /><path
         id="path38"
         style="fill:#231f20;fill-opacity:1;fill-rule:nonzero;stroke:none"
         d="m 5841.56,3415.07 v -741.25 h -168.75 l -100,336.97 v -336.97 h -161.25 v 741.25 h 161.25 l 107.5,-333.77 v 333.77 h 161.25" /><path
         id="path40"
         style="fill:#231f20;fill-opacity:1;fill-rule:nonzero;stroke:none"
         d="m 5919.41,2673.82 h 192.5 v 741.25 h -192.5 z" /><path
         id="path42"
         style="fill:#231f20;fill-opacity:1;fill-rule:nonzero;stroke:none"
         d="m 6189.58,3415.07 h 325 v -148.75 h -132.5 v -140 h 117.5 v -141.25 h -117.5 v -311.25 h -192.5 v 741.25" /><path
         id="path44"
         style="fill:#231f20;fill-opacity:1;fill-rule:nonzero;stroke:none"
         d="m 6562.81,3415.07 h 322.5 v -148.75 h -130 v -140 h 121.25 v -141.25 h -121.25 v -162.5 h 142.5 v -148.75 h -335 v 741.25" /><path
         id="path46"
         style="fill:#ffffff;fill-opacity:1;fill-rule:nonzero;stroke:none"
         d="M 1238.57,1390.17 V 895.152 c 0,-56.132 -1.83,-95.543 -5.48,-118.261 -3.66,-22.731 -14.48,-46.051 -32.45,-70 -17.96,-23.942 -41.66,-42.11 -71.05,-54.45 -29.39,-12.332 -64.04,-18.519 -103.93,-18.519 -44.18,0 -83.164,7.328 -116.972,21.957 -33.829,14.641 -59.102,33.711 -75.86,57.18 -16.758,23.48 -26.64,48.273 -29.687,74.363 -3.047,26.07 -4.571,80.898 -4.571,164.469 v 438.279 h 192.5 V 834.449 c 0,-32.34 1.739,-53.027 5.215,-62.027 3.477,-9.012 10.535,-13.5 21.155,-13.5 12.11,0 19.92,4.937 23.4,14.867 3.48,9.922 5.23,33.34 5.23,70.27 v 546.111 h 192.5" /><path
         id="path48"
         style="fill:#ffffff;fill-opacity:1;fill-rule:nonzero;stroke:none"
         d="M 1743.96,1390.17 V 648.922 h -168.75 l -100,336.976 V 648.922 h -161.25 v 741.248 h 161.25 l 107.5,-333.77 v 333.77 h 161.25" /><path
         id="path50"
         style="fill:#ffffff;fill-opacity:1;fill-rule:nonzero;stroke:none"
         d="M 2014.31,1263.92 V 775.172 c 27.93,0 45.14,5.57 51.58,16.738 6.45,11.172 9.67,41.539 9.67,91.11 v 288.66 c 0,33.65 -1.07,55.21 -3.22,64.7 -2.15,9.5 -7.07,16.45 -14.75,20.88 -7.67,4.44 -22.11,6.66 -43.28,6.66 z m -192.5,126.25 h 144.18 c 93.05,0 155.98,-4.27 188.79,-12.83 32.79,-8.55 57.73,-22.58 74.82,-42.11 17.09,-19.53 27.78,-41.29 32.06,-65.25 4.25,-23.97 6.4,-71.04 6.4,-141.23 V 869.141 c 0,-66.551 -3.14,-111.039 -9.39,-133.461 -6.25,-22.438 -17.17,-40 -32.72,-52.66 -15.56,-12.649 -34.78,-21.5 -57.67,-26.54 -22.89,-5.039 -57.37,-7.558 -103.44,-7.558 h -243.03 v 741.248" /><path
         id="path52"
         style="fill:#ffffff;fill-opacity:1;fill-rule:nonzero;stroke:none"
         d="m 2340.19,1390.17 h 322.5 v -148.75 h -130 v -140 h 121.25 V 960.172 h -121.25 v -162.5 h 142.5 v -148.75 h -335 v 741.248" /><path
         id="path54"
         style="fill:#ffffff;fill-opacity:1;fill-rule:nonzero;stroke:none"
         d="m 2922.39,1263.92 v -165 c 21.72,0 36.96,2.97 45.67,8.93 8.71,5.96 13.08,25.29 13.08,57.99 v 40.8 c 0,23.51 -4.22,38.94 -12.61,46.29 -8.42,7.32 -23.79,10.99 -46.14,10.99 z m -192.5,126.25 h 136.33 c 90.86,0 152.38,-3.51 184.57,-10.51 32.17,-7.01 58.4,-24.92 78.67,-53.71 20.28,-28.79 30.43,-74.72 30.43,-137.81 0,-57.6 -7.18,-96.29 -21.52,-116.09 -14.34,-19.81 -42.56,-31.7 -84.67,-35.65 38.13,-9.49 63.77,-22.17 76.9,-38.06 13.12,-15.899 21.28,-30.508 24.49,-43.789 3.2,-13.301 4.8,-49.903 4.8,-109.832 V 648.922 H 2981.14 V 895.82 c 0,39.762 -3.14,64.371 -9.41,73.86 -6.27,9.5 -22.72,14.242 -49.34,14.242 v -335 h -192.5 v 741.248" /><path
         id="path56"
         style="fill:#ffffff;fill-opacity:1;fill-rule:nonzero;stroke:none"
         d="M 3789.06,1390.17 V 1241.42 H 3672.81 V 648.922 h -192.5 v 592.498 h -113.75 v 148.75 h 422.5" /><path
         id="path58"
         style="fill:#ffffff;fill-opacity:1;fill-rule:nonzero;stroke:none"
         d="M 4275.09,1390.17 V 648.922 h -192.5 v 311.25 h -57.49 v -311.25 h -192.5 v 741.248 h 192.5 v -265 h 57.49 v 265 h 192.5" /><path
         id="path60"
         style="fill:#ffffff;fill-opacity:1;fill-rule:nonzero;stroke:none"
         d="m 4353.27,1390.17 h 322.5 v -148.75 h -130 v -140 h 121.25 V 960.172 h -121.25 v -162.5 h 142.5 v -148.75 h -335 v 741.248" /><path
         id="path62"
         style="fill:#ffffff;fill-opacity:1;fill-rule:nonzero;stroke:none"
         d="M 5367.66,1390.17 5257.04,1055.49 5377.66,648.922 H 5178.91 L 5100.79,966.66 V 648.922 h -192.5 v 741.248 h 192.5 v -287.99 l 86.87,287.99 h 180" /><path
         id="path64"
         style="fill:#ffffff;fill-opacity:1;fill-rule:nonzero;stroke:none"
         d="M 5841.56,1390.17 V 648.922 h -168.75 l -100,336.976 V 648.922 h -161.25 v 741.248 h 161.25 l 107.5,-333.77 v 333.77 h 161.25" /><path
         id="path66"
         style="fill:#ffffff;fill-opacity:1;fill-rule:nonzero;stroke:none"
         d="m 5919.41,648.922 h 192.5 v 741.25 h -192.5 z" /><path
         id="path68"
         style="fill:#ffffff;fill-opacity:1;fill-rule:nonzero;stroke:none"
         d="m 6189.58,1390.17 h 325 v -148.75 h -132.5 v -140 h 117.5 V 960.172 h -117.5 v -311.25 h -192.5 v 741.248" /><path
         id="path70"
         style="fill:#ffffff;fill-opacity:1;fill-rule:nonzero;stroke:none"
         d="m 6562.81,1390.17 h 322.5 v -148.75 h -130 v -140 h 121.25 V 960.172 h -121.25 v -162.5 h 142.5 v -148.75 h -335 v 741.248" /><path
         id="path72"
         style="fill:none;stroke:#ed1c24;stroke-width:20;stroke-linecap:butt;stroke-linejoin:miter;stroke-miterlimit:14;stroke-dasharray:none;stroke-opacity:1"
         d="m 798.047,3054.52 3061.063,-0.42 25,130.42 20,-98.75 25,-17.5 27.5,-270 40,492.5 20,-248.33 45.84,-25 46.66,113.33 43.74,-76.25 h 2722.49" /><path
         id="path74"
         style="fill:none;stroke:#ed1c24;stroke-width:20;stroke-linecap:butt;stroke-linejoin:miter;stroke-miterlimit:14;stroke-dasharray:none;stroke-opacity:1"
         d="m 798.047,1029.63 3061.063,-0.42 25,130.42 20,-98.75 25,-17.5 27.5,-270.001 40,492.501 20,-248.33 45.84,-24.999 46.66,113.329 43.74,-76.25 h 2722.49" /><path
         id="path76"
         style="fill:#231f20;fill-opacity:1;fill-rule:nonzero;stroke:none"
         d="m 1069,3786.36 v -285.59 h -74.551 v 285.59 H 826.73 v 54.41 h 409.99 v -54.41 H 1069" /><path
         id="path78"
         style="fill:#231f20;fill-opacity:1;fill-rule:nonzero;stroke:none"
         d="m 1600.7,3763.05 c 0,13.6 -8.74,24.77 -25.05,24.77 h -208.48 v -101.03 h 208.48 c 16.31,0 25.05,9.71 25.05,23.32 z m 9.9,-262.28 -164.81,132.6 h -78.62 v -132.6 h -71.64 v 340 h 308.66 c 35.53,0 67.56,-26.72 67.56,-56.35 v -94.23 c 0,-29.62 -32.03,-56.82 -67.56,-56.82 h -64.06 l 167.14,-132.6 h -96.67" /><path
         id="path80"
         style="fill:#231f20;fill-opacity:1;fill-rule:nonzero;stroke:none"
         d="m 1956.52,3769.85 -83.86,-141.83 h 166.56 z m 156.66,-269.08 -42.51,73.83 h -229.45 l -43.69,-73.83 h -77.45 l 208.49,340 h 62.89 l 202.67,-340 h -80.95" /><path
         id="path82"
         style="fill:#231f20;fill-opacity:1;fill-rule:nonzero;stroke:none"
         d="m 2564.45,3500.77 h -250.42 c -34.94,0 -72.21,30.6 -72.21,60.23 v 279.77 h 75.71 v -283.66 h 242.85 v 283.66 h 76.29 V 3561 c 0,-29.63 -37.28,-60.23 -72.22,-60.23" /><path
         id="path84"
         style="fill:#231f20;fill-opacity:1;fill-rule:nonzero;stroke:none"
         d="m 3128.76,3500.77 v 235.08 l -156.66,-189.91 -157.23,188.45 v -233.62 h -67.56 v 340 h 64.06 l 163.65,-196.72 161.31,196.72 h 63.48 v -340 h -71.05" /><path
         id="path86"
         style="fill:#231f20;fill-opacity:1;fill-rule:nonzero;stroke:none"
         d="m 3488.08,3769.85 -83.86,-141.83 h 166.56 z m 156.66,-269.08 -42.51,73.83 h -229.46 l -43.68,-73.83 h -77.45 l 208.49,340 h 62.89 l 202.67,-340 h -80.95" /><path
         id="path88"
         style="fill:#231f20;fill-opacity:1;fill-rule:nonzero;stroke:none"
         d="m 4443.73,3500.77 h -242.85 c -34.95,0 -72.21,30.6 -72.21,60.23 v 219.54 c 0,29.62 37.26,60.23 72.21,60.23 h 242.85 c 34.94,0 72.21,-30.61 72.21,-60.23 v -54.41 L 4442.56,3714 v 71.39 h -237.6 v -228.77 h 237.6 v 74.8 l 73.38,-11.65 V 3561 c 0,-29.63 -37.27,-60.23 -72.21,-60.23" /><path
         id="path90"
         style="fill:#231f20;fill-opacity:1;fill-rule:nonzero;stroke:none"
         d="m 4619.01,3500.77 v 340 h 355.83 v -54.41 h -281.29 v -83.54 h 168.9 v -54.88 h -168.9 v -92.29 h 285.36 v -54.88 h -359.9" /><path
         id="path92"
         style="fill:#231f20;fill-opacity:1;fill-rule:nonzero;stroke:none"
         d="m 5414.53,3500.77 -279.54,242.85 v -242.85 h -69.89 v 340 h 55.91 l 279.54,-242.38 v 242.38 h 69.89 v -340 h -55.91" /><path
         id="path94"
         style="fill:#231f20;fill-opacity:1;fill-rule:nonzero;stroke:none"
         d="m 5771.52,3786.36 v -285.59 h -74.54 v 285.59 h -167.73 v 54.41 h 409.99 v -54.41 h -167.72" /><path
         id="path96"
         style="fill:#231f20;fill-opacity:1;fill-rule:nonzero;stroke:none"
         d="m 5998.05,3500.77 v 340 h 355.83 v -54.41 h -281.29 v -83.54 h 168.9 v -54.88 h -168.9 v -92.29 h 285.36 v -54.88 h -359.9" /><path
         id="path98"
         style="fill:#231f20;fill-opacity:1;fill-rule:nonzero;stroke:none"
         d="m 6749.3,3763.05 c 0,13.6 -8.74,24.77 -25.04,24.77 h -208.49 v -101.03 h 208.49 c 16.3,0 25.04,9.71 25.04,23.32 z m 9.9,-262.28 -164.81,132.6 h -78.62 v -132.6 h -71.63 v 340 h 308.66 c 35.52,0 67.55,-26.72 67.55,-56.35 v -94.23 c 0,-29.62 -32.03,-56.82 -67.55,-56.82 h -64.06 l 167.13,-132.6 h -96.67" /><path
         id="path100"
         style="fill:#ffffff;fill-opacity:1;fill-rule:nonzero;stroke:none"
         d="m 1069,1761.47 v -285.6 h -74.551 v 285.6 H 826.73 v 54.4 h 409.99 v -54.4 H 1069" /><path
         id="path102"
         style="fill:#ffffff;fill-opacity:1;fill-rule:nonzero;stroke:none"
         d="m 1600.7,1738.15 c 0,13.59 -8.74,24.77 -25.05,24.77 H 1367.17 V 1661.9 h 208.48 c 16.31,0 25.05,9.71 25.05,23.31 z m 9.9,-262.28 -164.81,132.59 h -78.62 v -132.59 h -71.64 v 340 h 308.66 c 35.53,0 67.56,-26.72 67.56,-56.35 v -94.22 c 0,-29.63 -32.03,-56.84 -67.56,-56.84 h -64.06 l 167.14,-132.59 h -96.67" /><path
         id="path104"
         style="fill:#ffffff;fill-opacity:1;fill-rule:nonzero;stroke:none"
         d="m 1956.52,1744.95 -83.86,-141.82 h 166.56 z m 156.66,-269.08 -42.51,73.82 h -229.45 l -43.69,-73.82 h -77.45 l 208.49,340 h 62.89 l 202.67,-340 h -80.95" /><path
         id="path106"
         style="fill:#ffffff;fill-opacity:1;fill-rule:nonzero;stroke:none"
         d="m 2564.45,1475.87 h -250.42 c -34.94,0 -72.21,30.6 -72.21,60.23 v 279.77 h 75.71 v -283.66 h 242.85 v 283.66 h 76.29 V 1536.1 c 0,-29.63 -37.28,-60.23 -72.22,-60.23" /><path
         id="path108"
         style="fill:#ffffff;fill-opacity:1;fill-rule:nonzero;stroke:none"
         d="m 3128.76,1475.87 v 235.08 L 2972.1,1521.04 2814.87,1709.5 v -233.63 h -67.56 v 340 h 64.06 l 163.65,-196.72 161.31,196.72 h 63.48 v -340 h -71.05" /><path
         id="path110"
         style="fill:#ffffff;fill-opacity:1;fill-rule:nonzero;stroke:none"
         d="m 3488.08,1744.95 -83.86,-141.82 h 166.56 z m 156.66,-269.08 -42.51,73.82 h -229.46 l -43.68,-73.82 h -77.45 l 208.49,340 h 62.89 l 202.67,-340 h -80.95" /><path
         id="path112"
         style="fill:#ffffff;fill-opacity:1;fill-rule:nonzero;stroke:none"
         d="m 4443.73,1475.87 h -242.85 c -34.95,0 -72.21,30.6 -72.21,60.23 v 219.53 c 0,29.63 37.26,60.24 72.21,60.24 h 242.85 c 34.94,0 72.21,-30.61 72.21,-60.24 v -54.39 l -73.38,-12.14 v 71.39 h -237.6 v -228.76 h 237.6 v 74.8 l 73.38,-11.66 v -58.77 c 0,-29.63 -37.27,-60.23 -72.21,-60.23" /><path
         id="path114"
         style="fill:#ffffff;fill-opacity:1;fill-rule:nonzero;stroke:none"
         d="m 4619.01,1475.87 v 340 h 355.83 v -54.4 h -281.29 v -83.54 h 168.9 v -54.9 h -168.9 v -92.28 h 285.36 v -54.88 h -359.9" /><path
         id="path116"
         style="fill:#ffffff;fill-opacity:1;fill-rule:nonzero;stroke:none"
         d="m 5414.53,1475.87 -279.54,242.85 v -242.85 h -69.89 v 340 h 55.91 l 279.54,-242.37 v 242.37 h 69.89 v -340 h -55.91" /><path
         id="path118"
         style="fill:#ffffff;fill-opacity:1;fill-rule:nonzero;stroke:none"
         d="m 5771.52,1761.47 v -285.6 h -74.54 v 285.6 h -167.73 v 54.4 h 409.99 v -54.4 h -167.72" /><path
         id="path120"
         style="fill:#ffffff;fill-opacity:1;fill-rule:nonzero;stroke:none"
         d="m 5998.05,1475.87 v 340 h 355.83 v -54.4 h -281.29 v -83.54 h 168.9 v -54.9 h -168.9 v -92.28 h 285.36 v -54.88 h -359.9" /><path
         id="path122"
         style="fill:#ffffff;fill-opacity:1;fill-rule:nonzero;stroke:none"
         d="m 6749.3,1738.15 c 0,13.59 -8.74,24.77 -25.04,24.77 H 6515.77 V 1661.9 h 208.49 c 16.3,0 25.04,9.71 25.04,23.31 z m 9.9,-262.28 -164.81,132.59 h -78.62 v -132.59 h -71.63 v 340 h 308.66 c 35.52,0 67.55,-26.72 67.55,-56.35 v -94.22 c 0,-29.63 -32.03,-56.84 -67.55,-56.84 h -64.06 l 167.13,-132.59 h -96.67" /><path
         id="path124"
         style="fill:#231f20;fill-opacity:1;fill-rule:nonzero;stroke:none"
         d="m 6870.72,3758.66 v 63.12 h -23.6 v 8.44 h 56.72 v -8.44 h -23.59 v -63.12 h -9.53" /><path
         id="path126"
         style="fill:#231f20;fill-opacity:1;fill-rule:nonzero;stroke:none"
         d="m 6913.36,3758.66 v 71.56 h 14.08 l 17.09,-50.68 c 1.57,-4.72 2.72,-8.26 3.44,-10.6 0.82,2.6 2.11,6.42 3.86,11.47 l 17.36,49.81 h 12.46 v -71.56 h -9.07 v 59.84 l -21.04,-59.84 h -8.35 l -20.76,60.93 v -60.93 h -9.07" /><path
         id="path128"
         style="fill:#ffffff;fill-opacity:1;fill-rule:nonzero;stroke:none"
         d="m 6870.72,1733.76 v 63.12 h -23.6 v 8.44 h 56.72 v -8.44 h -23.59 v -63.12 h -9.53" /><path
         id="path130"
         style="fill:#ffffff;fill-opacity:1;fill-rule:nonzero;stroke:none"
         d="m 6913.36,1733.76 v 71.56 h 14.08 l 17.09,-50.68 c 1.57,-4.72 2.72,-8.26 3.44,-10.6 0.82,2.6 2.11,6.43 3.86,11.47 l 17.36,49.81 h 12.46 v -71.56 h -9.07 v 59.84 l -21.04,-59.84 h -8.35 l -20.76,60.93 v -60.93 h -9.07" /></g></g></svg>